<svg width="81" height="17" viewBox="0 0 81 17" fill="none" xmlns="http://www.w3.org/2000/svg">
<path d="M2.74 15.93H5.96046e-08V2.1H2.74V15.93ZM2.84 8.55L7.2 2.1H10.14L5.7 8.35L10.52 15.93H7.29L2.84 8.55ZM20.5522 13.14C20.5522 13.5467 20.6122 13.8433 20.7322 14.03C20.8522 14.21 21.0455 14.3467 21.3122 14.44L20.7422 16.21C20.1755 16.15 19.6922 16.01 19.2922 15.79C18.8989 15.5633 18.5955 15.2267 18.3822 14.78C17.9822 15.2667 17.4755 15.63 16.8622 15.87C16.2555 16.11 15.6189 16.23 14.9522 16.23C13.8722 16.23 13.0155 15.9233 12.3822 15.31C11.7489 14.6967 11.4322 13.9 11.4322 12.92C11.4322 11.7933 11.8722 10.9267 12.7522 10.32C13.6389 9.70667 14.8922 9.4 16.5122 9.4H17.9922V8.83C17.9922 8.20333 17.7989 7.75 17.4122 7.47C17.0255 7.18333 16.4689 7.04 15.7422 7.04C15.4022 7.04 14.9755 7.08667 14.4622 7.18C13.9555 7.26667 13.4322 7.40333 12.8922 7.59L12.2622 5.78C12.9355 5.52667 13.6122 5.34 14.2922 5.22C14.9789 5.1 15.6022 5.04 16.1622 5.04C17.6489 5.04 18.7522 5.35667 19.4722 5.99C20.1922 6.61667 20.5522 7.50667 20.5522 8.66V13.14ZM15.8122 14.32C16.2122 14.32 16.6155 14.2067 17.0222 13.98C17.4355 13.7533 17.7589 13.4367 17.9922 13.03V10.97H16.9522C15.9722 10.97 15.2622 11.1267 14.8222 11.44C14.3889 11.7533 14.1722 12.1967 14.1722 12.77C14.1722 13.2633 14.3122 13.6467 14.5922 13.92C14.8722 14.1867 15.2789 14.32 15.8122 14.32ZM30.1844 5.34V14.06H32.9744V15.93H24.4444V14.06H27.5444V7.21H24.5444V5.34H30.1844ZM28.4744 -2.38419e-07C28.961 -2.38419e-07 29.3544 0.15 29.6544 0.449999C29.961 0.75 30.1144 1.12333 30.1144 1.57C30.1144 2.01667 29.961 2.39333 29.6544 2.7C29.3544 3 28.961 3.15 28.4744 3.15C27.9877 3.15 27.591 3 27.2844 2.7C26.9777 2.39333 26.8244 2.01667 26.8244 1.57C26.8244 1.12333 26.9777 0.75 27.2844 0.449999C27.591 0.15 27.9877 -2.38419e-07 28.4744 -2.38419e-07ZM56.7987 2.1V11.09C56.7987 11.81 56.6921 12.4833 56.4788 13.11C56.2654 13.7367 55.9388 14.28 55.4988 14.74C55.0654 15.2 54.5188 15.56 53.8588 15.82C53.1988 16.08 52.4221 16.21 51.5288 16.21C50.7154 16.21 49.9821 16.0967 49.3288 15.87C48.6821 15.6433 48.0688 15.3267 47.4888 14.92L48.5688 13.21C49.0821 13.55 49.5588 13.7867 49.9988 13.92C50.4454 14.0467 50.9088 14.11 51.3888 14.11C52.1888 14.11 52.8354 13.8567 53.3288 13.35C53.8221 12.8367 54.0688 12.08 54.0688 11.08V4.16H49.8688V2.1H56.7987ZM62.7109 5.34V12.68C62.7109 13.2533 62.8243 13.6567 63.0509 13.89C63.2776 14.1233 63.6076 14.24 64.0409 14.24C64.4543 14.24 64.8576 14.1167 65.2509 13.87C65.6443 13.6167 65.9643 13.2967 66.2109 12.91V5.34H68.8509V15.93H66.5509L66.4109 14.63C66.0309 15.15 65.5443 15.5467 64.9509 15.82C64.3576 16.0933 63.7443 16.23 63.1109 16.23C62.0909 16.23 61.3276 15.9433 60.8209 15.37C60.3209 14.79 60.0709 14 60.0709 13V5.34H62.7109ZM72.0631 15.93V5.34H74.3631L74.5531 6.65C75.0065 6.11667 75.5165 5.71667 76.0831 5.45C76.6498 5.17667 77.2598 5.04 77.9131 5.04C78.8665 5.04 79.5931 5.31667 80.0931 5.87C80.5931 6.41667 80.8431 7.18667 80.8431 8.18V15.93H78.2031V9.21C78.2031 8.67667 78.1698 8.25 78.1031 7.93C78.0365 7.60333 77.9098 7.37 77.7231 7.23C77.5365 7.08333 77.2665 7.01 76.9131 7.01C76.6265 7.01 76.3498 7.07333 76.0831 7.2C75.8231 7.32667 75.5765 7.49667 75.3431 7.71C75.1165 7.92333 74.9031 8.16 74.7031 8.42V15.93H72.0631Z" fill="#36BCF7"/>
</svg>
